<svg width="16" height="17" viewBox="0 0 16 17" fill="none" xmlns="http://www.w3.org/2000/svg">
<g id="Login-Icons">
<path id="Vector" d="M8 3.41666C4.36364 3.41666 1.25818 5.67848 0 8.87121C1.25818 12.0639 4.36364 14.3258 8 14.3258C11.6364 14.3258 14.7418 12.0639 16 8.87121C14.7418 5.67848 11.6364 3.41666 8 3.41666ZM8 12.5076C5.99273 12.5076 4.36364 10.8785 4.36364 8.87121C4.36364 6.86394 5.99273 5.23485 8 5.23485C10.0073 5.23485 11.6364 6.86394 11.6364 8.87121C11.6364 10.8785 10.0073 12.5076 8 12.5076ZM8 6.68939C6.79273 6.68939 5.81818 7.66394 5.81818 8.87121C5.81818 10.0785 6.79273 11.053 8 11.053C9.20727 11.053 10.1818 10.0785 10.1818 8.87121C10.1818 7.66394 9.20727 6.68939 8 6.68939Z" fill="#4D4D4D"/>
</g>
</svg>
