<svg width="1056" height="590" viewBox="0 0 1056 590" fill="none" xmlns="http://www.w3.org/2000/svg">
<path d="M123.33 4.73272H929.027C941.608 4.73272 951.807 14.9317 951.807 27.5128V574.479H100.55V27.5128C100.55 14.9317 110.749 4.73272 123.33 4.73272Z" fill="black" stroke="#9FA2A5" stroke-width="9.11204"/>
<path fill-rule="evenodd" clip-rule="evenodd" d="M0.811279 555.675H1055.19V577.452H0.811279V555.675Z" fill="#D8D8D8"/>
<path fill-rule="evenodd" clip-rule="evenodd" d="M0.811279 577.452H1055.19V577.452C1055.19 584.23 1049.69 589.726 1042.92 589.726H13.0853C6.30657 589.726 0.811279 584.23 0.811279 577.452V577.452Z" fill="#9FA2A5"/>
<path fill-rule="evenodd" clip-rule="evenodd" d="M453.361 555.675H594.314V555.675C590.44 563.666 582.34 568.741 573.459 568.741H474.217C465.336 568.741 457.236 563.666 453.361 555.675V555.675Z" fill="#9FA2A5"/>
</svg>
